<svg width="30" height="10" viewBox="0 0 30 10" fill="none" xmlns="http://www.w3.org/2000/svg">
<path d="M4.36617 7.04799C4.36617 6.67788 4.37019 5.68862 4.36107 5.56674C4.36902 4.09468 3.29872 3.05629 2.62256 3.13724C2.15467 3.17784 1.76255 3.36862 1.55201 3.91746C1.35687 4.42896 1.53133 5.10931 2.18012 5.26896C2.87387 5.44041 3.27897 5.58306 3.57214 5.78431C3.93136 6.03068 4.22461 6.50141 4.2324 7.04857" fill="#0060AF"/>
<path d="M4.64276 9.28602C3.41951 9.28602 2.16236 8.98473 0.906886 8.38884L0.876079 8.37369L0.861345 8.3423C0.297943 7.15304 0 5.85227 0 4.57964C0 3.30892 0.28572 2.06383 0.849541 0.876163L0.865029 0.844602L0.896422 0.828863C2.0578 0.278688 3.30717 0 4.61095 0C5.82548 0 7.12257 0.310248 8.36138 0.898766L8.3932 0.912914L8.40785 0.94506C8.98205 2.15625 9.28485 3.45668 9.28485 4.70823C9.28485 5.95491 8.9941 7.20109 8.41923 8.41153L8.40408 8.44334L8.3721 8.45808C7.22847 8.99946 5.93875 9.28602 4.64276 9.28602ZM1.02308 8.22577C2.24273 8.79946 3.45911 9.08921 4.64276 9.08921C5.89782 9.08921 7.14601 8.81487 8.25708 8.29483C8.80901 7.1219 9.08878 5.91473 9.08878 4.70823C9.08878 3.49686 8.79679 2.23679 8.24443 1.06126C7.0422 0.496096 5.78664 0.196396 4.61095 0.196396C3.34869 0.196396 2.13884 0.464117 1.01253 0.992275C0.471902 2.14344 0.196731 3.34969 0.196731 4.57964C0.196731 5.81192 0.482701 7.07251 1.02308 8.22577Z" fill="#0060AF"/>
<path d="M4.07632 7.04961C4.07858 6.5752 3.81379 6.1557 3.46771 5.93026C3.16073 5.73102 2.7486 5.60008 2.08373 5.43148C1.87821 5.37891 1.66323 5.26213 1.59668 5.11328C1.42063 5.29067 1.38865 5.68949 1.41962 5.92255C1.45562 6.19228 1.77081 6.63681 2.24539 6.65423C2.53521 6.66586 2.90163 6.59185 3.07735 6.55452C3.38048 6.48905 3.86009 6.67892 3.93643 7.04903" fill="#0060AF"/>
<path d="M4.61053 0.84375C3.80586 0.84375 3.11078 1.37442 3.11329 2.29269C3.1158 3.06488 3.7368 3.47827 3.95839 3.77353C4.29325 4.21847 4.4745 4.74512 4.49333 5.55097C4.50798 6.19231 4.50723 6.82561 4.51049 7.05005H4.68814C4.68504 6.81523 4.677 6.14292 4.68621 5.53113C4.69826 4.72503 4.88604 4.21847 5.22106 3.77353C5.44458 3.47827 6.06508 3.06488 6.06642 2.29269C6.06943 1.37442 5.37477 0.84375 4.57076 0.84375" fill="#0060AF"/>
<path d="M4.81494 7.04799C4.81494 6.67788 4.81075 5.68862 4.81971 5.56674C4.81185 4.09468 5.88147 3.05629 6.55823 3.13724C7.02611 3.17784 7.41781 3.36862 7.62894 3.91746C7.82392 4.42896 7.64845 5.10931 7.00041 5.26896C6.30633 5.44041 5.90173 5.58306 5.60781 5.78431C5.24901 6.03068 4.97626 6.50141 4.96789 7.04857" fill="#0060AF"/>
<path d="M5.10451 7.04961C5.102 6.5752 5.36671 6.1557 5.71178 5.93026C6.02002 5.73102 6.43265 5.60008 7.09693 5.43148C7.30287 5.37891 7.5176 5.26213 7.58298 5.11328C7.75987 5.29067 7.79177 5.68949 7.76079 5.92255C7.72404 6.19228 7.40969 6.63681 6.93595 6.65423C6.64621 6.66586 6.27786 6.59185 6.1029 6.55452C5.80094 6.48905 5.31999 6.67892 5.24331 7.04903" fill="#0060AF"/>
<path d="M5.35297 8.58073L5.25 7.82939L5.49855 7.79171C5.55908 7.78342 5.63275 7.79397 5.66221 7.8319C5.69478 7.87149 5.70474 7.90423 5.71102 7.95613C5.7204 8.02034 5.70181 8.0946 5.62948 8.1316V8.13385C5.71027 8.13385 5.75907 8.19186 5.77322 8.28981C5.77531 8.31049 5.78142 8.36046 5.77531 8.40215C5.7589 8.50136 5.69972 8.53325 5.59984 8.54724L5.35297 8.58073ZM5.51295 8.4462C5.54242 8.44199 5.5723 8.44042 5.59566 8.42552C5.63141 8.40216 5.62814 8.35218 5.6232 8.3151C5.61073 8.23356 5.58946 8.20259 5.50299 8.21539L5.44866 8.22377L5.48306 8.45038L5.51295 8.4462ZM5.46088 8.09903C5.49378 8.09369 5.5384 8.08974 5.55698 8.05851C5.56669 8.03767 5.57917 8.02109 5.57096 7.97471C5.56083 7.91971 5.54258 7.88564 5.47277 7.89886L5.40772 7.90933L5.43334 8.10188" fill="#0060AF"/>
<path d="M6.42916 8.12915C6.43109 8.14314 6.43335 8.15871 6.43418 8.17268C6.45428 8.30973 6.42916 8.42316 6.27512 8.45439C6.04742 8.49826 6.0038 8.35677 5.9637 8.1587L5.94236 8.05155C5.91096 7.86201 5.89749 7.71853 6.1195 7.67433C6.24465 7.65147 6.32736 7.70128 6.36177 7.82585C6.36713 7.84443 6.37383 7.86286 6.37634 7.88152L6.24013 7.90965C6.22439 7.86286 6.20355 7.77923 6.14227 7.78626C6.03227 7.79948 6.0686 7.93635 6.0799 7.99353L6.12084 8.19922C6.13314 8.26143 6.15759 8.36079 6.25277 8.34162C6.33004 8.32613 6.29639 8.20575 6.28952 8.15645" fill="#0060AF"/>
<path d="M6.64869 8.35584L6.60156 7.5783L6.78456 7.52246L7.16823 8.19872L7.02416 8.24182L6.93324 8.06996L6.77326 8.11801L6.79394 8.3134L6.64869 8.35584ZM6.75987 7.99244L6.87548 7.95895L6.72194 7.64435" fill="#0060AF"/>
<path d="M2.12871 7.76885C2.18597 7.58552 2.23729 7.45056 2.45579 7.51051C2.57274 7.54316 2.64523 7.59472 2.6418 7.73059C2.64124 7.76082 2.63125 7.79162 2.62472 7.82151L2.48869 7.78392C2.50652 7.70891 2.51782 7.64939 2.4254 7.62093C2.31858 7.59163 2.29254 7.72113 2.27781 7.77705L2.22247 7.9809C2.20489 8.04143 2.1838 8.14146 2.27781 8.16725C2.3555 8.18818 2.40263 8.11192 2.43076 8.00057L2.33557 7.97537L2.36847 7.85742L2.59224 7.92942L2.48601 8.32229L2.38304 8.29433L2.40623 8.21128H2.4033C2.35591 8.27918 2.29807 8.28629 2.24742 8.27658C2.02365 8.21605 2.047 8.06981 2.10041 7.87442" fill="#0060AF"/>
<path d="M2.96127 8.10014L2.89388 8.41977L2.74219 8.38695L2.90384 7.64062L3.16244 7.69906C3.31379 7.73171 3.3595 7.7991 3.33807 7.93782C3.32585 8.01743 3.28659 8.10324 3.19073 8.09629L3.18973 8.09499C3.27076 8.12337 3.27763 8.16422 3.26348 8.23488C3.25737 8.26492 3.21526 8.44735 3.24431 8.47681L3.24531 8.49916L3.08835 8.45823C3.08182 8.40767 3.104 8.31675 3.11279 8.26643C3.12167 8.2219 3.13582 8.15911 3.09061 8.13551C3.0552 8.11667 3.04205 8.11759 3.00204 8.10838L2.96127 8.10014ZM2.98714 7.98453L3.08927 8.01207C3.1513 8.02103 3.18579 7.98888 3.19802 7.91396C3.20907 7.84523 3.19475 7.81836 3.13908 7.80504L3.02958 7.78286" fill="#0060AF"/>
<path d="M3.93356 7.80748L4.08357 7.8249L4.01895 8.34954C3.98755 8.51588 3.92326 8.58863 3.74026 8.56586C3.55408 8.54233 3.50987 8.45753 3.52118 8.28985L3.58622 7.76562L3.73741 7.78296L3.67253 8.29546C3.66567 8.35113 3.65278 8.43358 3.75181 8.44355C3.83963 8.45025 3.85955 8.39206 3.86943 8.31974" fill="#0060AF"/>
<path d="M4.25 8.59498L4.29512 7.84473L4.58335 7.8572C4.71956 7.8639 4.75522 7.97515 4.75095 8.08131C4.74701 8.14585 4.72684 8.21793 4.67058 8.25703C4.62446 8.29026 4.56519 8.29813 4.51019 8.29545L4.41626 8.29024L4.39751 8.60467L4.25 8.59498ZM4.42053 8.17582L4.49688 8.18009C4.55891 8.18234 4.60001 8.15782 4.60537 8.06674C4.60838 7.97926 4.57532 7.96444 4.49495 7.96092L4.43442 7.95885" fill="#0060AF"/>
<path d="M24.5785 1.56882L23.4329 3.64805C23.0005 3.29695 22.4725 3.03852 21.7989 3.03852C20.2047 3.03852 19.5571 4.22686 19.5571 5.06393C19.5571 5.68526 19.964 6.60202 21.3825 6.60202C21.9778 6.60202 22.8243 6.1878 23.0679 5.99936L21.9349 8.41161C21.3949 8.51935 21.2175 8.58616 20.7603 8.6003C18.2215 8.67607 17.1955 7.11646 17.1963 5.52277C17.198 3.41599 19.0711 0.853808 22.1763 0.853808C22.3665 0.853808 22.5993 0.919609 22.7983 0.992524L22.9993 0.735352" fill="#0060AF"/>
<path d="M29.3056 0.799805L29.63 8.35694H27.2158L27.2144 7.06086H25.5682L25.0264 8.35694H22.4082L25.1454 2.96049L24.5282 2.95648L25.701 0.799805H29.3056ZM27.1987 3.11168L26.268 5.30979H27.2268" fill="#0060AF"/>
<path d="M15.6722 0.799852C16.8678 0.806549 17.5433 1.45551 17.5433 2.39295C17.5433 3.25714 16.8308 4.02213 16.0487 4.41769C16.8539 4.7137 16.9236 5.44035 16.9236 5.95444C16.9236 7.19644 15.6773 8.35698 14.0574 8.35698H10.5244L11.9025 3.03571L11.3365 3.03245L12.4936 0.799852C12.4936 0.799852 14.7 0.793154 15.6722 0.799852ZM14.4993 3.86382C14.7466 3.86382 15.1832 3.80121 15.2924 3.3226C15.412 2.80307 15.0023 2.78909 14.8057 2.78909L14.1033 2.78601L13.8584 3.86385L14.4993 3.86382ZM13.5063 5.19925L13.1829 6.44125H14.0099C14.3353 6.44125 14.7787 6.27976 14.8874 5.87558C14.9947 5.47024 14.6847 5.19925 14.3605 5.19925" fill="#0060AF"/>
</svg>
